<svg xmlns="http://www.w3.org/2000/svg" viewBox="0 0 356 72" role="img" aria-label="VinFast">
  <rect width="356" height="72" fill="none"/>
  <path d="M38 6 8 64h17L38 34l13 30h17L38 6Z" fill="#111827"/>
  <path d="M26 6h24l-12 22L26 6Z" fill="#4b5563"/>
  <path d="M91 18h14l14 35 14-35h14l-22 49h-12L91 18Zm63 0h12v49h-12V18Zm26 0h13l22 29V18h12v49h-11l-24-31v31h-12V18Zm62 0h39v11h-27v10h24v11h-24v17h-12V18Zm48 0h39v11h-27v9h24v11h-24v18h-12V18Zm57 0h13l21 49h-14l-4-10h-20l-4 10h-13l21-49Zm12 29-6-15-6 15h12Zm30 13 7-9c5 4 10 6 16 6 4 0 6-1 6-4 0-2-2-3-9-5-10-2-18-5-18-15 0-9 7-16 20-16 8 0 15 2 20 6l-6 9c-5-3-10-5-15-5-4 0-6 2-6 4 0 3 2 4 10 5 11 3 17 6 17 15 0 10-8 16-21 16-9 0-18-3-24-8Zm59-31h-15V18h43v11h-15v38h-13V29Z" fill="#111827"/>
</svg>
