<svg xmlns="http://www.w3.org/2000/svg" viewBox="0 0 900 520" role="img" aria-label="VinFast accessory">
  <defs>
    <linearGradient id="panel" x1="0" y1="0" x2="1" y2="1">
      <stop offset="0" stop-color="#ffffff"/>
      <stop offset="1" stop-color="#dfe9f4"/>
    </linearGradient>
    <linearGradient id="accent" x1="0" y1="0" x2="1" y2="1">
      <stop offset="0" stop-color="#f33b45"/>
      <stop offset="1" stop-color="#b80f18"/>
    </linearGradient>
    <filter id="shadow" x="-20%" y="-20%" width="140%" height="160%">
      <feDropShadow dx="0" dy="24" stdDeviation="18" flood-color="#102646" flood-opacity=".2"/>
    </filter>
  </defs>
  <rect width="900" height="520" rx="34" fill="#f2f6fb"/>
  <ellipse cx="455" cy="405" rx="290" ry="40" fill="#b7c7d8" opacity=".45"/>
  <g filter="url(#shadow)">
    <rect x="300" y="90" width="300" height="330" rx="36" fill="url(#panel)"/>
    <rect x="340" y="134" width="220" height="42" rx="21" fill="#162235"/>
    <circle cx="450" cy="252" r="74" fill="#eef4fb" stroke="#cbd8e6" stroke-width="12"/>
    <path d="M460 174l-88 112h66l-20 88 102-126h-70z" fill="url(#accent)"/>
    <path d="M600 270h58c54 0 88 34 88 84 0 50-34 84-88 84h-96" fill="none" stroke="#172233" stroke-width="28" stroke-linecap="round"/>
    <path d="M744 354h42c36 0 61 24 61 57 0 31-23 54-55 57" fill="none" stroke="#172233" stroke-width="22" stroke-linecap="round"/>
    <rect x="184" y="272" width="116" height="136" rx="22" fill="#172233"/>
    <rect x="204" y="292" width="76" height="40" rx="10" fill="#f7fbff"/>
    <path d="M242 408v32" stroke="#172233" stroke-width="24" stroke-linecap="round"/>
  </g>
</svg>
