<svg xmlns="http://www.w3.org/2000/svg" viewBox="0 0 900 520" role="img" aria-label="Electric motorbike">
  <defs>
    <linearGradient id="body" x1="0" y1="0" x2="1" y2="1">
      <stop offset="0" stop-color="#f7fbff"/>
      <stop offset="1" stop-color="#d8e5f2"/>
    </linearGradient>
    <linearGradient id="red" x1="0" y1="0" x2="1" y2="1">
      <stop offset="0" stop-color="#f33b45"/>
      <stop offset="1" stop-color="#b80f18"/>
    </linearGradient>
    <filter id="shadow" x="-20%" y="-20%" width="140%" height="160%">
      <feDropShadow dx="0" dy="24" stdDeviation="18" flood-color="#102646" flood-opacity=".22"/>
    </filter>
  </defs>
  <rect width="900" height="520" rx="34" fill="#eef4fa"/>
  <ellipse cx="455" cy="398" rx="320" ry="38" fill="#b7c7d8" opacity=".45"/>
  <g filter="url(#shadow)">
    <circle cx="285" cy="360" r="76" fill="#172233"/>
    <circle cx="285" cy="360" r="45" fill="#e8f0f8"/>
    <circle cx="630" cy="360" r="76" fill="#172233"/>
    <circle cx="630" cy="360" r="45" fill="#e8f0f8"/>
    <path d="M282 336c46-82 98-126 175-135 88-11 154 25 202 110l-53 25c-33-49-79-72-140-66-55 6-92 36-126 86z" fill="#24364f"/>
    <path d="M355 230c48-92 140-122 246-96 39 9 70 26 95 49l-32 44c-66-34-129-42-191-24-37 11-67 31-90 60z" fill="url(#red)"/>
    <path d="M188 288c51-47 105-70 162-68 51 1 94 22 129 62l-66 60H236c-50 0-76-24-48-54z" fill="url(#body)"/>
    <path d="M517 211h138c31 0 52 16 62 49l16 51h-70l-19-44H505z" fill="#111827"/>
    <path d="M671 185l74-20 12 34-74 19z" fill="#111827"/>
    <path d="M230 264l-54-36 19-28 70 47z" fill="#111827"/>
    <rect x="407" y="165" width="145" height="42" rx="21" fill="#111827"/>
    <path d="M392 151c54-20 116-19 179 2l-19 32H411z" fill="#f7fbff"/>
    <path d="M486 270h70l-54 72h-77z" fill="#d71920"/>
  </g>
</svg>
